<?xml version="1.0" encoding="utf-8"?>
<!-- Generator: Adobe Illustrator 25.4.0, SVG Export Plug-In . SVG Version: 6.00 Build 0)  -->
<svg version="1.1" id="Capa_1" xmlns="http://www.w3.org/2000/svg" xmlns:xlink="http://www.w3.org/1999/xlink" x="0px" y="0px"
	 viewBox="0 0 42.8 49" style="enable-background:new 0 0 42.8 49;" xml:space="preserve">
<style type="text/css">
	.st0{fill:#010202;}
	.st1{fill:#8C1247;stroke:#000000;stroke-miterlimit:10;}
</style>
<g>
	<path class="st0" d="M41.2,32.8c-0.8,2.6-1.9,4.7-3.5,6.4l5.1,4.8L38,49L32.6,44c-1.6,1-3,1.7-4.2,2.1c-2,0.7-4.4,1-7.2,1
		c-5.8,0-10.6-1.7-14.4-5.2C2.3,37.7,0,31.6,0,23.5C0,15.4,2.4,9.3,7.1,5.1C10.9,1.7,15.7,0,21.4,0C27.1,0,32,1.8,35.9,5.4
		c4.5,4.2,6.8,10,6.8,17.5C42.6,26.8,42.2,30.2,41.2,32.8z M24.3,38.8c0.5-0.1,1.2-0.4,2.1-0.8l-4.5-4.3l4.8-5l4.5,4.3
		c0.7-1.4,1.2-2.7,1.5-3.8c0.4-1.6,0.7-3.5,0.7-5.7c0-5-1-8.8-3.1-11.6c-2-2.7-5-4.1-8.9-4.1c-3.7,0-6.6,1.3-8.8,3.9
		c-2.2,2.6-3.3,6.5-3.3,11.7c0,6.1,1.6,10.5,4.7,13.1c2,1.7,4.5,2.6,7.3,2.6C22.3,39.2,23.3,39.1,24.3,38.8z"/>
</g>
<g>
	<path class="st1" d="M12.4,31c0.7,4.5,2.6,7.3,7.4,7.7c2.1,0.1,4.2-0.1,6.1-0.9c2.1-0.9,4.8-2.8,4.8-5.4c0-4.7-8.4-5.3-11.7-6
		c-3.4-0.6-6.9-1.4-9.8-3.3C2.8,18.8,3.4,9.6,8.8,4.8c2.8-2.5,7-3.7,12.4-3.7c4.6,0,8.5,1.2,11.7,3.5c3.2,2.3,4.9,5.7,5.1,10.1h-8.6
		c-0.2-2.5-1.3-4.3-3.5-5.3c-1.4-0.7-3.2-1-5.3-1c-2.4,0-4.2,0.5-5.7,1.4c-1.4,0.9-2.1,2.2-2.1,3.8c0,1.5,0.7,2.6,2.1,3.3
		c0.9,0.5,2.8,1.1,5.7,1.7l7.5,1.7c3.3,0.8,5.8,1.8,7.4,3c2.6,2,3.8,4.8,3.8,8.5c0,6-6.9,11.4-12.1,13c-6.4,2.1-13.3,0.5-18.5-3.5
		C5.5,38.8,3.9,35.4,3.9,31C3.9,31,12.4,31,12.4,31z"/>
</g>
</svg>
